<?xml version="1.0" encoding="UTF-8"?><!DOCTYPE svg PUBLIC "-//W3C//DTD SVG 1.1//EN" "http://www.w3.org/Graphics/SVG/1.1/DTD/svg11.dtd"><svg xmlns="http://www.w3.org/2000/svg"><symbol id="icon-facebook" viewBox="0 0 10 19">
    <title>
        facebook
    </title>
    <path d="M9.766.157v2.946H8.014c-.64 0-1.071.134-1.295.402-.223.268-.335.67-.335 1.205v2.11h3.27l-.435 3.303H6.384v8.471H2.97v-8.47H.123V6.82H2.97V4.387c0-1.384.387-2.457 1.161-3.22C4.904.404 5.934.023 7.222.023c1.093 0 1.941.045 2.544.134z" fill-rule="evenodd"/>
</symbol><symbol id="icon-phone" viewBox="0 0 1443.1 1455.1">
    <path d="M1425.3 1137.3c0 18-3.3 41.5-10 70.5s-13.7 51.8-21 68.5c-14 33.3-54.7 68.7-122 106-62.7 34-124.7 51-186 51-18 0-35.5-1.2-52.5-3.5s-36.2-6.5-57.5-12.5-37.2-10.8-47.5-14.5-28.8-10.5-55.5-20.5-43-16-49-18c-65.3-23.3-123.7-51-175-83-85.3-52.7-173.5-124.5-264.5-215.5S221.9 886.6 169.3 801.3c-32-51.3-59.7-109.7-83-175-2-6-8-22.3-18-49s-16.8-45.2-20.5-55.5-8.5-26.2-14.5-47.5-10.2-40.5-12.5-57.5-3.5-34.5-3.5-52.5c0-61.3 17-123.3 51-186 37.3-67.3 72.7-108 106-122 16.7-7.3 39.5-14.3 68.5-21s52.5-10 70.5-10c9.3 0 16.3 1 21 3 12 4 29.7 29.3 53 76 7.3 12.7 17.3 30.7 30 54s24.3 44.5 35 63.5 21 36.8 31 53.5c2 2.7 7.8 11 17.5 25s16.8 25.8 21.5 35.5 7 19.2 7 28.5c0 13.3-9.5 30-28.5 50s-39.7 38.3-62 55-43 34.3-62 53-28.5 34-28.5 46c0 6 1.7 13.5 5 22.5s6.2 15.8 8.5 20.5 7 12.7 14 24 10.8 17.7 11.5 19c50.7 91.3 108.7 169.7 174 235s143.7 123.3 235 174c1.3.7 7.7 4.5 19 11.5s19.3 11.7 24 14 11.5 5.2 20.5 8.5 16.5 5 22.5 5c12 0 27.3-9.5 46-28.5s36.3-39.7 53-62 35-43 55-62 36.7-28.5 50-28.5c9.3 0 18.8 2.3 28.5 7s21.5 11.8 35.5 21.5 22.3 15.5 25 17.5c16.7 10 34.5 20.3 53.5 31s40.2 22.3 63.5 35 41.3 22.7 54 30c46.7 23.3 72 41 76 53 2 4.6 3 11.6 3 21z"/>
</symbol></svg>